<svg width="35" height="33" viewBox="0 0 35 33" fill="none" xmlns="http://www.w3.org/2000/svg">
<g clip-path="url(#clip0_20_141)">
<path d="M17.6116 4.12305H17.8062C19.6044 4.12923 28.7153 4.19111 31.1719 4.81398C31.9145 5.00408 32.5912 5.37462 33.1344 5.88856C33.6776 6.40251 34.0682 7.04186 34.2672 7.74273C34.4881 8.52648 34.6434 9.56392 34.7484 10.6344L34.7703 10.8489L34.8184 11.3851L34.8359 11.5996C34.9781 13.4847 34.9956 15.2502 34.9978 15.6359V15.7906C34.9956 16.1907 34.9759 18.0759 34.8184 20.0394L34.8009 20.2559L34.7812 20.4704C34.6719 21.6502 34.51 22.8217 34.2672 23.6838C34.0688 24.3849 33.6784 25.0246 33.1351 25.5386C32.5919 26.0527 31.9148 26.423 31.1719 26.6125C28.6344 27.256 18.9897 27.3014 17.6531 27.3035H17.3425C16.6666 27.3035 13.8709 27.2911 10.9397 27.1962L10.5678 27.1839L10.3775 27.1756L10.0034 27.1612L9.62937 27.1467C7.20125 27.0457 4.88906 26.8827 3.82375 26.6105C3.08107 26.4211 2.4042 26.0511 1.86096 25.5375C1.31771 25.0238 0.927165 24.3846 0.728437 23.6838C0.485625 22.8237 0.32375 21.6502 0.214375 20.4704L0.196875 20.2539L0.179375 20.0394C0.0714166 18.6418 0.0115935 17.2413 0 15.8401L0 15.5864C0.004375 15.143 0.021875 13.6105 0.14 11.9193L0.155312 11.7069L0.161875 11.5996L0.179375 11.3851L0.2275 10.8489L0.249375 10.6344C0.354375 9.56392 0.509687 8.52442 0.730625 7.74273C0.929017 7.04158 1.31942 6.40193 1.86268 5.88789C2.40595 5.37386 3.083 5.00351 3.82594 4.81398C4.89125 4.54586 7.20344 4.38086 9.63156 4.27773L10.0034 4.2633L10.3797 4.25092L10.5678 4.24473L10.9419 4.2303C13.0237 4.16713 15.1064 4.13207 17.1894 4.12511L17.6116 4.12305ZM14 10.7437V20.6808L23.0934 15.7143L14 10.7437Z" fill="black"/>
</g>
<defs>
<clipPath id="clip0_20_141">
<rect width="35" height="33" fill="white"/>
</clipPath>
</defs>
</svg>
