<svg width="47" height="40" viewBox="0 0 47 40" fill="none" xmlns="http://www.w3.org/2000/svg">
<path d="M37.2475 8.29155C34.5274 5.97755 31.062 4.40198 27.2897 3.7641C23.5174 3.12621 19.6076 3.45465 16.0546 4.70788C12.5016 5.96111 9.46505 8.08285 7.32893 10.8048C5.19281 13.5267 4.05305 16.7267 4.05377 19.9999C4.05377 24.39 6.10225 28.6004 9.74885 31.7054C13.3955 34.8105 18.3417 36.556 23.5 36.5582C26.0527 36.5591 28.5809 36.1345 30.9417 35.3082C33.295 34.4628 35.4357 33.2407 37.2475 31.7082C39.0544 30.1708 40.4876 28.3454 41.4655 26.3365C42.4434 24.3276 42.9467 22.1744 42.9467 19.9999C42.9467 17.8254 42.4434 15.6722 41.4655 13.6633C40.4876 11.6543 39.0544 9.82902 37.2475 8.29155ZM35.8767 30.5249C33.0764 32.9183 29.402 34.429 25.4584 34.8082V23.8749H29.14C29.6594 23.8749 30.1575 23.6993 30.5248 23.3867C30.892 23.0742 31.0984 22.6502 31.0984 22.2082C31.0984 21.7662 30.892 21.3423 30.5248 21.0297C30.1575 20.7171 29.6594 20.5416 29.14 20.5416H25.4584V15.9749C25.4584 15.5329 25.6647 15.1089 26.0319 14.7964C26.3992 14.4838 26.8973 14.3082 27.4167 14.3082H29.7667C30.2861 14.3082 30.7842 14.1326 31.1514 13.8201C31.5187 13.5075 31.725 13.0836 31.725 12.6416C31.725 12.1995 31.5187 11.7756 31.1514 11.463C30.7842 11.1505 30.2861 10.9749 29.7667 10.9749H26.4375C25.1391 10.9749 23.8938 11.4139 22.9756 12.1953C22.0575 12.9767 21.5417 14.0365 21.5417 15.1416V20.5416H17.8796C17.3602 20.5416 16.8621 20.7171 16.4949 21.0297C16.1276 21.3423 15.9213 21.7662 15.9213 22.2082C15.9213 22.6502 16.1276 23.0742 16.4949 23.3867C16.8621 23.6993 17.3602 23.8749 17.8796 23.8749H21.5417V34.8082C17.9049 34.4551 14.4903 33.1385 11.7803 31.0443C9.07028 28.9502 7.20182 26.1844 6.43883 23.1375C5.67583 20.0907 6.05687 16.9169 7.52811 14.0643C8.99935 11.2118 11.4864 8.82469 14.6381 7.24025C17.7897 5.65582 21.4466 4.95411 25.0922 5.23425C28.7378 5.51439 32.1878 6.76221 34.955 8.80146C37.7222 10.8407 39.6667 13.5683 40.5138 16.599C41.3609 19.6297 41.0678 22.8103 39.6759 25.6916C38.7893 27.4969 37.499 29.1385 35.8767 30.5249Z" fill="black"/>
</svg>
